<mxfile host="www.draw.io" modified="2020-02-02T19:40:35.578Z" agent="Mozilla/5.0 (X11; Linux x86_64) AppleWebKit/537.36 (KHTML, like Gecko) Chrome/78.0.3904.108 Safari/537.36" etag="sauZAEKDyb-CNg9Uql_x" version="12.6.4" type="github">
  <diagram id="sCM7uaMok8tgUvsMVrMC" name="Page-1">
    <mxGraphModel dx="1352" dy="806" grid="1" gridSize="10" guides="1" tooltips="1" connect="1" arrows="1" fold="1" page="1" pageScale="1" pageWidth="850" pageHeight="1100" math="0" shadow="0">
      <root>
        <mxCell id="0"/>
        <mxCell id="1" parent="0"/>
        <mxCell id="4Zmsej9P6uwO4Pd-Vwgm-1" value="8" style="whiteSpace=wrap;html=1;aspect=fixed;" vertex="1" parent="1">
          <mxGeometry x="160" y="170" width="30" height="30" as="geometry"/>
        </mxCell>
        <mxCell id="4Zmsej9P6uwO4Pd-Vwgm-2" value="3" style="whiteSpace=wrap;html=1;aspect=fixed;" vertex="1" parent="1">
          <mxGeometry x="220" y="170" width="30" height="30" as="geometry"/>
        </mxCell>
        <mxCell id="4Zmsej9P6uwO4Pd-Vwgm-3" value="4" style="whiteSpace=wrap;html=1;aspect=fixed;" vertex="1" parent="1">
          <mxGeometry x="250" y="170" width="30" height="30" as="geometry"/>
        </mxCell>
        <mxCell id="4Zmsej9P6uwO4Pd-Vwgm-4" value="9" style="whiteSpace=wrap;html=1;aspect=fixed;" vertex="1" parent="1">
          <mxGeometry x="280" y="170" width="30" height="30" as="geometry"/>
        </mxCell>
        <mxCell id="4Zmsej9P6uwO4Pd-Vwgm-5" value="1" style="whiteSpace=wrap;html=1;aspect=fixed;" vertex="1" parent="1">
          <mxGeometry x="310" y="170" width="30" height="30" as="geometry"/>
        </mxCell>
        <mxCell id="4Zmsej9P6uwO4Pd-Vwgm-6" value="For 1 rotation" style="text;html=1;strokeColor=none;fillColor=none;align=left;verticalAlign=middle;whiteSpace=wrap;rounded=0;" vertex="1" parent="1">
          <mxGeometry x="160" y="130" width="180" height="20" as="geometry"/>
        </mxCell>
        <mxCell id="4Zmsej9P6uwO4Pd-Vwgm-13" value="Move to buffer" style="text;html=1;strokeColor=none;fillColor=none;align=center;verticalAlign=middle;whiteSpace=wrap;rounded=0;" vertex="1" parent="1">
          <mxGeometry x="125" y="230" width="100" height="20" as="geometry"/>
        </mxCell>
        <mxCell id="4Zmsej9P6uwO4Pd-Vwgm-14" value="" style="endArrow=classic;html=1;entryX=0.5;entryY=1;entryDx=0;entryDy=0;exitX=0.5;exitY=0;exitDx=0;exitDy=0;" edge="1" parent="1" source="4Zmsej9P6uwO4Pd-Vwgm-13" target="4Zmsej9P6uwO4Pd-Vwgm-1">
          <mxGeometry width="50" height="50" relative="1" as="geometry">
            <mxPoint x="130" y="340" as="sourcePoint"/>
            <mxPoint x="180" y="290" as="targetPoint"/>
          </mxGeometry>
        </mxCell>
        <mxCell id="4Zmsej9P6uwO4Pd-Vwgm-16" value="3" style="whiteSpace=wrap;html=1;aspect=fixed;" vertex="1" parent="1">
          <mxGeometry x="150" y="340" width="30" height="30" as="geometry"/>
        </mxCell>
        <mxCell id="4Zmsej9P6uwO4Pd-Vwgm-17" value="4" style="whiteSpace=wrap;html=1;aspect=fixed;" vertex="1" parent="1">
          <mxGeometry x="180" y="340" width="30" height="30" as="geometry"/>
        </mxCell>
        <mxCell id="4Zmsej9P6uwO4Pd-Vwgm-18" value="9" style="whiteSpace=wrap;html=1;aspect=fixed;" vertex="1" parent="1">
          <mxGeometry x="210" y="340" width="30" height="30" as="geometry"/>
        </mxCell>
        <mxCell id="4Zmsej9P6uwO4Pd-Vwgm-19" value="1" style="whiteSpace=wrap;html=1;aspect=fixed;" vertex="1" parent="1">
          <mxGeometry x="240" y="340" width="30" height="30" as="geometry"/>
        </mxCell>
        <mxCell id="4Zmsej9P6uwO4Pd-Vwgm-20" value="Move the remaining element to front" style="text;html=1;strokeColor=none;fillColor=none;align=left;verticalAlign=middle;whiteSpace=wrap;rounded=0;" vertex="1" parent="1">
          <mxGeometry x="150" y="300" width="200" height="20" as="geometry"/>
        </mxCell>
        <mxCell id="4Zmsej9P6uwO4Pd-Vwgm-27" value="1" style="whiteSpace=wrap;html=1;aspect=fixed;" vertex="1" parent="1">
          <mxGeometry x="270" y="340" width="30" height="30" as="geometry"/>
        </mxCell>
        <mxCell id="4Zmsej9P6uwO4Pd-Vwgm-29" value="3" style="whiteSpace=wrap;html=1;aspect=fixed;" vertex="1" parent="1">
          <mxGeometry x="150" y="440" width="30" height="30" as="geometry"/>
        </mxCell>
        <mxCell id="4Zmsej9P6uwO4Pd-Vwgm-30" value="4" style="whiteSpace=wrap;html=1;aspect=fixed;" vertex="1" parent="1">
          <mxGeometry x="180" y="440" width="30" height="30" as="geometry"/>
        </mxCell>
        <mxCell id="4Zmsej9P6uwO4Pd-Vwgm-31" value="9" style="whiteSpace=wrap;html=1;aspect=fixed;" vertex="1" parent="1">
          <mxGeometry x="210" y="440" width="30" height="30" as="geometry"/>
        </mxCell>
        <mxCell id="4Zmsej9P6uwO4Pd-Vwgm-32" value="1" style="whiteSpace=wrap;html=1;aspect=fixed;" vertex="1" parent="1">
          <mxGeometry x="240" y="440" width="30" height="30" as="geometry"/>
        </mxCell>
        <mxCell id="4Zmsej9P6uwO4Pd-Vwgm-33" value="Copy the buffer to the tail" style="text;html=1;strokeColor=none;fillColor=none;align=left;verticalAlign=middle;whiteSpace=wrap;rounded=0;" vertex="1" parent="1">
          <mxGeometry x="150" y="410" width="180" height="20" as="geometry"/>
        </mxCell>
        <mxCell id="4Zmsej9P6uwO4Pd-Vwgm-40" value="8" style="whiteSpace=wrap;html=1;aspect=fixed;" vertex="1" parent="1">
          <mxGeometry x="270" y="440" width="30" height="30" as="geometry"/>
        </mxCell>
      </root>
    </mxGraphModel>
  </diagram>
</mxfile>
